<svg xmlns="http://www.w3.org/2000/svg" width="115.677" height="35.275" viewBox="0 0 115.677 35.275"><defs><style>.a{fill:#e84949;}</style></defs><g transform="translate(-351.109 -152.826)"><path class="a" d="M493.9,156.017h7.325a1.035,1.035,0,0,1,1.035,1.035v7.192a1.035,1.035,0,0,1-1.759.738l-7.325-7.192A1.034,1.034,0,0,1,493.9,156.017Z" transform="translate(-35.478 -3.191)"/><g transform="translate(349.786 147.101)"><path class="a" d="M12.446-31.311a10.256,10.256,0,0,1,4.165.882,11.99,11.99,0,0,1,3.552,2.376,11.208,11.208,0,0,1,2.45,3.528,10.53,10.53,0,0,1,.906,4.337,11.045,11.045,0,0,1-.857,4.336A11.452,11.452,0,0,1,20.335-12.3a10.791,10.791,0,0,1-3.5,2.4,10.9,10.9,0,0,1-4.385.882,7.463,7.463,0,0,1-2.279-.368,7.258,7.258,0,0,1-2.229-1.2v7.252a3.185,3.185,0,0,1-.98,2.377A3.249,3.249,0,0,1,4.606,0,3.167,3.167,0,0,1,2.279-.956a3.226,3.226,0,0,1-.956-2.377V-20.188a10.883,10.883,0,0,1,.931-4.165,11.758,11.758,0,0,1,2.4-3.553,12.06,12.06,0,0,1,3.5-2.474A9.968,9.968,0,0,1,12.446-31.311Zm0,15.68a4.383,4.383,0,0,0,3.185-1.3,4.377,4.377,0,0,0,1.323-3.258,4.322,4.322,0,0,0-.367-1.764,4.71,4.71,0,0,0-.98-1.445,4.444,4.444,0,0,0-1.421-.956,4.407,4.407,0,0,0-1.74-.343,4.587,4.587,0,0,0-1.764.343,4.376,4.376,0,0,0-1.446.956,4.376,4.376,0,0,0-.955,1.445,4.587,4.587,0,0,0-.343,1.764,4.716,4.716,0,0,0,.343,1.813,4.376,4.376,0,0,0,.955,1.445,4.376,4.376,0,0,0,1.446.956A4.587,4.587,0,0,0,12.446-15.631Zm23.03-15.68a10.683,10.683,0,0,1,4.189.858,11.319,11.319,0,0,1,3.577,2.376,11.958,11.958,0,0,1,2.475,3.528,10.244,10.244,0,0,1,.931,4.361v9.065a10.132,10.132,0,0,1-.907,4.214,12.137,12.137,0,0,1-2.425,3.553,11.506,11.506,0,0,1-3.553,2.45A10.414,10.414,0,0,1,35.476,0H28.812a3.275,3.275,0,0,1-2.327-.956,3.146,3.146,0,0,1-1-2.377V-27.979a3.3,3.3,0,0,1,.956-2.3,3.111,3.111,0,0,1,2.376-1.029ZM32.1-24.647V-6.664h3.381a4.587,4.587,0,0,0,1.764-.343,4.377,4.377,0,0,0,1.445-.955,4.444,4.444,0,0,0,.955-1.421,4.407,4.407,0,0,0,.343-1.74v-9.065a4.407,4.407,0,0,0-.343-1.74,4.444,4.444,0,0,0-.955-1.421A4.377,4.377,0,0,0,37.24-24.3a4.587,4.587,0,0,0-1.764-.343ZM56.007-24.7v6.664h6.419a3.106,3.106,0,0,1,2.352.98,3.294,3.294,0,0,1,.931,2.352,3.21,3.21,0,0,1-.931,2.328,3.145,3.145,0,0,1-2.352.955H56.007v8.085a3.226,3.226,0,0,1-.955,2.377A3.226,3.226,0,0,1,52.675,0,3.226,3.226,0,0,1,50.3-.956a3.226,3.226,0,0,1-.955-2.377V-27.979a3.3,3.3,0,0,1,.955-2.3,3.111,3.111,0,0,1,2.377-1.029H65.709a3.128,3.128,0,0,1,2.327.98,3.249,3.249,0,0,1,.956,2.352,3.145,3.145,0,0,1-.956,2.352,3.21,3.21,0,0,1-2.327.931ZM86.485-6.86a3.111,3.111,0,0,1,2.279.956,3.167,3.167,0,0,1,.955,2.328A3.226,3.226,0,0,1,88.764-1.2a3.111,3.111,0,0,1-2.279.956h-12.3A3.145,3.145,0,0,1,71.834-1.2a3.65,3.65,0,0,1-1.029-2.376V-28.224a3.128,3.128,0,0,1,.98-2.328,3.308,3.308,0,0,1,2.4-.955,3.219,3.219,0,0,1,2.278.955,3.091,3.091,0,0,1,1,2.328V-6.86Zm15.827-24.451a10.4,10.4,0,0,1,4.214.858,10.97,10.97,0,0,1,3.454,2.376,12.047,12.047,0,0,1,2.4,3.528,11.683,11.683,0,0,1,1,4.361v9.016a12.22,12.22,0,0,1-.955,4.239A11.762,11.762,0,0,1,110.1-3.356a11.076,11.076,0,0,1-3.454,2.45A10.312,10.312,0,0,1,102.312,0a10.57,10.57,0,0,1-4.239-.858,11.181,11.181,0,0,1-3.5-2.376,11.722,11.722,0,0,1-2.425-3.553,11.884,11.884,0,0,1-1-4.385v-9.016a11.178,11.178,0,0,1,.931-4.239,11.585,11.585,0,0,1,2.376-3.552A11.413,11.413,0,0,1,97.975-30.4,10.53,10.53,0,0,1,102.312-31.311Zm0,24.7a4.407,4.407,0,0,0,1.74-.343,4.261,4.261,0,0,0,1.421-.98,5.137,5.137,0,0,0,.98-1.445,4.272,4.272,0,0,0,.368-1.788v-9.016a4.322,4.322,0,0,0-.368-1.764,4.71,4.71,0,0,0-.98-1.445,4.444,4.444,0,0,0-1.421-.956,4.407,4.407,0,0,0-1.74-.343,4.534,4.534,0,0,0-1.788.343,4.74,4.74,0,0,0-1.446.956,4.2,4.2,0,0,0-.98,1.445,4.587,4.587,0,0,0-.343,1.764v9.016a4.4,4.4,0,0,0,1.323,3.234A4.4,4.4,0,0,0,102.312-6.615Z" transform="translate(0 41)"/></g></g></svg>